<svg width="20" height="20" viewBox="0 0 20 20" fill="white" xmlns="http://www.w3.org/2000/svg">
  <path fill-rule="evenodd" clip-rule="evenodd" d="M10 0C4.477 0 0 4.477 0 10C0 14.419 2.865 18.167 6.839 19.499C7.339 19.592 7.521 19.275 7.521 19.003C7.521 18.754 7.512 18.029 7.508 17.202C4.726 17.805 4.139 15.966 4.139 15.966C3.684 14.812 3.029 14.497 3.029 14.497C2.121 13.879 3.098 13.891 3.098 13.891C4.101 13.963 4.629 14.929 4.629 14.929C5.521 16.457 6.97 16.014 7.541 15.752C7.631 15.111 7.889 14.669 8.175 14.42C5.955 14.166 3.62 13.307 3.62 9.477C3.62 8.387 4.01 7.494 4.649 6.794C4.546 6.534 4.203 5.52 4.747 4.145C4.747 4.145 5.587 3.879 7.496 5.164C8.295 4.943 9.15 4.833 10 4.829C10.85 4.833 11.705 4.943 12.506 5.164C14.413 3.878 15.251 4.145 15.251 4.145C15.797 5.52 15.454 6.534 15.35 6.794C15.991 7.494 16.378 8.387 16.378 9.477C16.378 13.319 14.039 14.164 11.813 14.411C12.172 14.723 12.491 15.335 12.491 16.279C12.491 17.618 12.477 18.66 12.477 19.003C12.477 19.277 12.656 19.595 13.166 19.498C17.138 18.163 20 14.418 20 10C20 4.477 15.523 0 10 0Z"/>
</svg> 