<svg width="20" height="20" viewBox="0 0 20 20" xmlns="http://www.w3.org/2000/svg">
  <g transform="matrix(1, 0, 0, 1, 0, 0)">
    <path d="M19.6 10.2c0-.7-.1-1.4-.2-2H10v3.8h5.4c-.2 1.2-.9 2.2-2 2.9v2.4h3.2c1.9-1.8 3-4.3 3-7.1z" fill="#4285F4"/>
    <path d="M10 20c2.7 0 4.9-.9 6.6-2.4l-3.2-2.4c-.9.6-2 1-3.3 1-2.6 0-4.7-1.7-5.5-4h-3.3v2.5c1.6 3.2 5 5.3 8.7 5.3z" fill="#34A853"/>
    <path d="M4.5 12.2c-.2-.6-.3-1.2-.3-1.9 0-.7.1-1.3.3-1.9v-2.5h-3.3c-.7 1.3-1.1 2.7-1.1 4.4 0 1.7.4 3.1 1.1 4.4l3.3-2.5z" fill="#FBBC05"/>
    <path d="M10 4.2c1.4 0 2.7.5 3.8 1.4l2.8-2.8c-1.7-1.6-4-2.6-6.6-2.6-3.7 0-7.1 2.1-8.7 5.3l3.3 2.5c.8-2.3 2.9-4 5.4-4z" fill="#EA4335"/>
  </g>
</svg> 