<svg xmlns="http://www.w3.org/2000/svg" viewBox="0 0 100 100" width="100" height="100">
  <defs>
    <linearGradient id="obsidian-gradient" x1="0%" y1="0%" x2="100%" y2="100%">
      <stop offset="0%" stop-color="#9174f0" />
      <stop offset="100%" stop-color="#6148c0" />
    </linearGradient>
  </defs>
  <g fill="url(#obsidian-gradient)">
    <path d="M86.92,50c0-20.4-16.52-36.92-36.92-36.92S13.08,29.6,13.08,50c0,16.61,10.95,30.63,26.04,35.26l4.09-13.57
    c-8.93-2.66-15.44-10.93-15.44-20.72c0-11.94,9.67-21.62,21.62-21.62S71,39.03,71,50.97c0,9.23-5.8,17.08-13.95,20.19l4.18,13.59
    C76.28,79.9,86.92,66.14,86.92,50z"/>
    <path d="M54.04,42.36c0,0-12.33-5.91-20.52,5.91c0,0-5.56,9.6,1.74,19.21c7.3,9.6,15.14,7.82,15.14,7.82
    s-2.43-7.48-4.17-12.33c-1.74-4.86-2.78-7.82-2.78-7.82s10.76,3.82,17.92,5.56c7.13,1.74,15.84,3.47,15.84,3.47
    s-3.13-9.95-12.37-14.63C55.61,44.62,54.04,42.36,54.04,42.36z"/>
  </g>
</svg> 